#!OML:ASF F:\VICON\USERDATA\INSTALL\rory3\rory3.ASF
:FULLY-SPECIFIED
:DEGREES
1528
root 2.67116 9.92356 -5.50608 -196.527 220.514 -176.976
lowerback 30.2511 2.87561 -1.14898
upperback 12.5179 3.02566 4.2954
thorax -2.74909 1.08964 4.47748
lowerneck -26.2782 6.34525 -2.92148
upperneck 9.25835 9.86648 -2.69758
head 6.99512 4.33018 0.844803
rclavicle -1.51076e-014 6.36111e-015
rhumerus -33.4668 30.4577 -78.4669
rradius 105.789
rwrist 48.5031
rhand -38.944 17.4446
rfingers 7.12502
rthumb -11.9496 -12.1943
lclavicle -1.51076e-014 6.36111e-015
lhumerus -30.4453 -28.5536 91.9745
lradius 87.1001
lwrist -18.5352
lhand -46.1703 13.5068
lfingers 7.12502
lthumb -18.9095 42.6076
rfemur -78.7615 -13.0664 18.1199
rtibia 108.042
rfoot -6.70696 11.5986
rtoes -1.04764
lfemur -75.129 22.5245 -18.0857
ltibia 110.557
lfoot -15.9752 -12.9472
ltoes -9.63967
1529
root 2.6729 9.92635 -5.50165 -196.572 220.577 -176.887
lowerback 30.3611 2.87865 -1.09317
upperback 12.5315 3.03958 4.27198
thorax -2.78026 1.09774 4.4132
lowerneck -26.2667 6.3884 -2.66693
upperneck 9.1813 9.85271 -2.81595
head 6.98658 4.32386 0.764702
rclavicle 1.19271e-014 -6.04305e-014
rhumerus -33.5386 30.253 -78.6761
rradius 105.834
rwrist 48.7223
rhand -39.1609 17.4405
rfingers 7.12502
rthumb -12.1588 -12.1862
lclavicle 1.19271e-014 -6.04305e-014
lhumerus -30.3943 -28.8264 91.8508
lradius 86.9778
lwrist -18.4016
lhand -46.5216 13.449
lfingers 7.12502
lthumb -19.2473 42.5166
rfemur -78.7778 -13.0575 18.091
rtibia 108.026
rfoot -6.71072 11.6233
rtoes -1.51542
lfemur -75.1599 22.5436 -18.1785
ltibia 110.606
lfoot -16.0462 -12.8336
ltoes -9.98672
1530
root 2.67154 9.92574 -5.49373 -196.529 220.649 -176.87
lowerback 30.4606 2.88996 -1.11066
upperback 12.4778 3.05681 4.36449
thorax -2.89274 1.10462 4.51919
lowerneck -26.2633 6.36101 -2.81256
upperneck 9.26931 9.8465 -2.66989
head 6.99992 4.32768 0.834876
rclavicle -6.91771e-014 1.59028e-015
rhumerus -33.7909 30.2193 -78.7395
rradius 106.05
rwrist 48.8831
rhand -39.0588 17.4532
rfingers 7.12502
rthumb -12.0603 -12.1792
lclavicle -6.91771e-014 1.59028e-015
lhumerus -30.5481 -28.9921 91.9407
lradius 86.9746
lwrist -18.2264
lhand -46.549 12.9623
lfingers 7.12502
lthumb -19.2737 42.0272
rfemur -78.8428 -13.0296 18.0913
rtibia 108.056
rfoot -6.64865 11.6904
rtoes -0.716338
lfemur -75.2724 22.5678 -18.1615
ltibia 110.679
lfoot -16.083 -12.8667
ltoes -10.0747
1531
root 2.66967 9.92442 -5.48667 -196.47 220.734 -176.801
lowerback 30.5163 2.87008 -1.16977
upperback 12.4226 3.02137 4.42293
thorax -2.98258 1.08524 4.62915
lowerneck -26.3015 6.38433 -3.01618
upperneck 9.3873 9.92867 -2.51269
head 7.02562 4.37103 0.930639
rclavicle 7.95139e-015 -3.49861e-014
rhumerus -33.9629 30.3309 -78.7507
rradius 106.273
rwrist 48.9775
rhand -38.9578 17.3325
rfingers 7.12502
rthumb -11.9629 -12.3057
lclavicle 7.95139e-015 -3.49861e-014
lhumerus -30.7573 -29.011 92.0111
lradius 87.0262
lwrist -18.0137
lhand -46.7247 12.9188
lfingers 7.12502
lthumb -19.4426 41.9668
rfemur -78.9915 -12.9536 18.0612
rtibia 108.095
rfoot -6.60641 11.7532
rtoes -0.420766
lfemur -75.3877 22.572 -18.196
ltibia 110.694
lfoot -16.0594 -12.7796
ltoes -10.3603
1532
root 2.66726 9.92401 -5.47889 -196.351 220.791 -176.705
lowerback 30.4298 2.8606 -1.25524
upperback 12.4179 2.98962 4.47783
thorax -2.95265 1.06526 4.7518
lowerneck -26.4886 6.41597 -3.01892
upperneck 9.52804 10.001 -2.59837
head 7.10582 4.38813 0.921923
rclavicle -2.46493e-014 -9.22361e-014
rhumerus -33.94 30.3445 -78.6868
rradius 106.428
rwrist 49.0742
rhand -38.9922 17.1049
rfingers 7.12502
rthumb -11.9961 -12.5313
lclavicle -2.46493e-014 -9.22361e-014
lhumerus -30.7691 -29.0257 92.043
lradius 87.072
lwrist -17.8812
lhand -46.9283 12.9758
lfingers 7.12502
lthumb -19.6383 42.0039
rfemur -79.2407 -12.9454 18.0383
rtibia 108.14
rfoot -6.55116 11.7808
rtoes -0.170277
lfemur -75.6046 22.572 -18.3008
ltibia 110.738
lfoot -15.9229 -12.7849
ltoes -9.77063
